# xmcd
#
# Track frame offsets: 
#        150
#        16536
#        28030
#        48698
#        63241
#        86561
#        100330
#        122436
#        139393
#        160542
#        178862
#        201080
#        217335
#
# Disc length: 3066 seconds
#
# Revision: 0
# Processed by: cddbd v1.5.2PL0 Copyright (c) Steve Scherf et al.
# Submitted via: ExactAudioCopy v0.99pb4
#
DISCID=b30bf80d
DTITLE=Kurt Slevigen - West Side From The East Side
DYEAR=2002
DGENRE=Blues
TTITLE0=Who's Been Talking
TTITLE1=Just Like I Treat You
TTITLE2=Hobo Blues
TTITLE3=You're The One
TTITLE4=Look How, Baby
TTITLE5=Good Morning Little Schoolgirl
TTITLE6=That's All Right
TTITLE7=You Don't Love Me
TTITLE8=Sinners Prayer
TTITLE9=Mean Old World
TTITLE10=Five Long Years
TTITLE11=Goin' Away Baby
TTITLE12=Goin' Down The Road
EXTD=
EXTT0=
EXTT1=
EXTT2=
EXTT3=
EXTT4=
EXTT5=
EXTT6=
EXTT7=
EXTT8=
EXTT9=
EXTT10=
EXTT11=
EXTT12=
PLAYORDER=
